<?xml version="1.0" standalone="no"?>
<!DOCTYPE svg PUBLIC "-//W3C//DTD SVG 20010904//EN"
 "http://www.w3.org/TR/2001/REC-SVG-20010904/DTD/svg10.dtd">
<svg version="1.0" xmlns="http://www.w3.org/2000/svg"
 width="477.000000pt" height="477.000000pt" viewBox="0 0 477.000000 477.000000"
 preserveAspectRatio="xMidYMid meet">
<metadata>
Created by potrace 1.11, written by Peter Selinger 2001-2013
</metadata>
<g transform="translate(0.000000,477.000000) scale(0.100000,-0.100000)"
fill="#000000" stroke="none">
<path d="M140 3285 l0 -835 121 0 122 0 -7 553 c-3 303 -10 597 -15 652 -8 99
-7 120 7 98 4 -6 63 -255 131 -552 l125 -541 81 0 81 0 123 543 c68 298 128
547 133 552 6 6 8 -23 4 -80 -3 -49 -8 -345 -12 -657 l-7 -568 122 0 121 0 0
835 0 835 -165 0 c-91 0 -165 -2 -165 -4 0 -2 -40 -163 -90 -357 -49 -195
-101 -426 -116 -514 -14 -88 -27 -161 -29 -163 -2 -2 -6 14 -9 35 -33 212 -59
338 -134 643 l-87 355 -168 3 -167 2 0 -835z"/>
<path d="M1540 4111 c0 -6 74 -256 165 -557 l165 -547 0 -278 0 -279 125 0
125 0 0 271 0 271 166 547 c91 300 167 554 170 564 5 16 -4 17 -122 15 l-127
-3 -101 -397 c-56 -219 -103 -398 -106 -398 -3 0 -48 165 -99 368 -52 202 -98
382 -103 400 l-9 32 -124 0 c-72 0 -125 -4 -125 -9z"/>
<path d="M4077 2250 c-100 -26 -199 -106 -238 -195 -26 -58 -38 -166 -28 -241
19 -139 69 -224 263 -453 229 -271 247 -301 254 -426 3 -72 1 -84 -20 -115
-30 -45 -61 -60 -123 -60 -111 0 -154 65 -163 242 l-5 108 -98 0 -98 0 -8 -37
c-4 -21 -8 -90 -8 -154 0 -109 2 -119 30 -174 34 -67 102 -125 175 -150 65
-23 197 -30 272 -16 78 16 169 63 210 110 58 66 82 134 86 246 7 183 -42 278
-308 597 -196 234 -220 275 -221 371 -1 78 19 119 67 142 74 35 161 6 197 -67
21 -43 37 -132 37 -210 l0 -58 98 0 99 0 13 84 c34 216 -28 362 -183 431 -49
23 -77 28 -161 31 -55 2 -118 -1 -139 -6z"/>
<path d="M140 1415 l0 -835 115 0 115 0 0 313 c0 296 -12 639 -26 737 -4 25
-4 42 0 39 3 -3 96 -248 205 -545 l199 -539 106 -3 106 -3 0 836 0 835 -115 0
-115 0 0 -367 c0 -337 12 -661 26 -723 18 -81 -34 53 -206 530 -106 294 -195
541 -197 548 -4 8 -35 12 -109 12 l-104 0 0 -835z"/>
<path d="M1360 1415 l0 -835 315 0 315 0 0 100 0 100 -185 0 -185 0 0 285 0
285 140 0 140 0 0 100 0 100 -140 0 -140 0 0 250 0 250 180 0 180 0 0 100 0
100 -310 0 -310 0 0 -835z"/>
<path d="M2191 2228 c0 -13 53 -387 117 -833 l117 -810 127 -3 c126 -3 128 -2
133 20 25 112 147 834 160 943 27 245 35 245 64 3 12 -101 53 -358 90 -573
l67 -390 129 0 130 0 112 800 c61 440 114 815 117 833 l5 32 -125 0 c-116 0
-124 -1 -124 -19 0 -11 -22 -242 -49 -513 -28 -271 -53 -544 -56 -605 -5 -81
-11 -113 -20 -113 -9 0 -15 34 -20 125 -5 85 -35 286 -94 623 l-87 497 -101 3
-101 3 -6 -28 c-44 -208 -178 -990 -187 -1090 -16 -177 -33 -180 -43 -8 -3 68
-31 346 -61 616 -30 271 -55 496 -55 501 0 4 -54 8 -120 8 -118 0 -120 0 -119
-22z"/>
</g>
</svg>
